# xmcd
#
# Track frame offsets:
#  180
#  14398
#  26804
#  41602
#  55576
#  69278
#  86508
#  100964
#  112326
#  128975
#  141777
#  155238
#  170830
#  187894
#
# Disc length: 2670 seconds
#
# Revision: 0
# Processed by: cddbd v1.5.1PL2 Copyright (c) Steve Scherf et al.
# Submitted via: Collectorz.com_Music_Collector 6.11
#
DISCID=c40a6c0e
DTITLE=Robin McRay - Hé, hé, ga mee
DYEAR=1900
DGENRE=Hollandstalig
TTITLE0=Hello goodmorning
TTITLE1=Maria Magdalena
TTITLE2=Het verlangen
TTITLE3=Hey bonjour
TTITLE4=Geen poen
TTITLE5=Speel mijn lied
TTITLE6=Zai zai zai
TTITLE7=Melanie
TTITLE8=Waarom heb ik je nodig
TTITLE9=Hopeloos verliefd
TTITLE10=De oude muzikant
TTITLE11=Judy, speel niet met mijn liefde
TTITLE12=Hou me vast
TTITLE13=Hé, hé, ga mee
EXTD=
EXTT0=
EXTT1=
EXTT2=
EXTT3=
EXTT4=
EXTT5=
EXTT6=
EXTT7=
EXTT8=
EXTT9=
EXTT10=
EXTT11=
EXTT12=
EXTT13=
PLAYORDER=
